<svg width="1000" height="300" viewBox="0 0 1000 300" fill="none" xmlns="http://www.w3.org/2000/svg">
<rect x="0.5" y="0.5" width="999" height="299" rx="44.5" fill="#131313" stroke="black" stroke-linejoin="round"/>
<path d="M251 196H243.818V172.727H251.318C253.576 172.727 255.508 173.193 257.114 174.125C258.72 175.049 259.951 176.379 260.807 178.114C261.663 179.841 262.091 181.909 262.091 184.318C262.091 186.742 261.659 188.83 260.795 190.58C259.932 192.322 258.674 193.663 257.023 194.602C255.371 195.534 253.364 196 251 196ZM246.636 193.5H250.818C252.742 193.5 254.337 193.129 255.602 192.386C256.867 191.644 257.811 190.587 258.432 189.216C259.053 187.845 259.364 186.212 259.364 184.318C259.364 182.439 259.057 180.822 258.443 179.466C257.83 178.102 256.913 177.057 255.693 176.33C254.473 175.595 252.955 175.227 251.136 175.227H246.636V193.5ZM273.773 196.364C272.091 196.364 270.64 195.992 269.42 195.25C268.208 194.5 267.273 193.455 266.614 192.114C265.962 190.765 265.636 189.197 265.636 187.409C265.636 185.621 265.962 184.045 266.614 182.682C267.273 181.311 268.189 180.242 269.364 179.477C270.545 178.705 271.924 178.318 273.5 178.318C274.409 178.318 275.307 178.47 276.193 178.773C277.08 179.076 277.886 179.568 278.614 180.25C279.341 180.924 279.92 181.818 280.352 182.932C280.784 184.045 281 185.417 281 187.045V188.182H267.545V185.864H278.273C278.273 184.879 278.076 184 277.682 183.227C277.295 182.455 276.742 181.845 276.023 181.398C275.311 180.951 274.47 180.727 273.5 180.727C272.432 180.727 271.508 180.992 270.727 181.523C269.955 182.045 269.36 182.727 268.943 183.568C268.527 184.409 268.318 185.311 268.318 186.273V187.818C268.318 189.136 268.545 190.254 269 191.17C269.462 192.08 270.102 192.773 270.92 193.25C271.739 193.72 272.689 193.955 273.773 193.955C274.477 193.955 275.114 193.856 275.682 193.659C276.258 193.455 276.754 193.152 277.17 192.75C277.587 192.341 277.909 191.833 278.136 191.227L280.727 191.955C280.455 192.833 279.996 193.606 279.352 194.273C278.708 194.932 277.913 195.447 276.966 195.818C276.019 196.182 274.955 196.364 273.773 196.364ZM298.821 178.545L292.366 196H289.639L283.185 178.545H286.094L290.912 192.455H291.094L295.912 178.545H298.821ZM322.361 184.364C322.361 186.818 321.918 188.939 321.031 190.727C320.145 192.515 318.929 193.894 317.384 194.864C315.838 195.833 314.073 196.318 312.088 196.318C310.103 196.318 308.338 195.833 306.793 194.864C305.247 193.894 304.031 192.515 303.145 190.727C302.259 188.939 301.815 186.818 301.815 184.364C301.815 181.909 302.259 179.788 303.145 178C304.031 176.212 305.247 174.833 306.793 173.864C308.338 172.894 310.103 172.409 312.088 172.409C314.073 172.409 315.838 172.894 317.384 173.864C318.929 174.833 320.145 176.212 321.031 178C321.918 179.788 322.361 181.909 322.361 184.364ZM319.634 184.364C319.634 182.348 319.296 180.648 318.622 179.261C317.955 177.875 317.05 176.826 315.906 176.114C314.77 175.402 313.497 175.045 312.088 175.045C310.679 175.045 309.402 175.402 308.259 176.114C307.122 176.826 306.217 177.875 305.543 179.261C304.876 180.648 304.543 182.348 304.543 184.364C304.543 186.379 304.876 188.08 305.543 189.466C306.217 190.852 307.122 191.902 308.259 192.614C309.402 193.326 310.679 193.682 312.088 193.682C313.497 193.682 314.77 193.326 315.906 192.614C317.05 191.902 317.955 190.852 318.622 189.466C319.296 188.08 319.634 186.379 319.634 184.364ZM326.736 202.545V178.545H329.327V181.318H329.645C329.842 181.015 330.115 180.629 330.463 180.159C330.819 179.682 331.327 179.258 331.986 178.886C332.652 178.508 333.554 178.318 334.69 178.318C336.16 178.318 337.455 178.686 338.577 179.42C339.698 180.155 340.573 181.197 341.202 182.545C341.83 183.894 342.145 185.485 342.145 187.318C342.145 189.167 341.83 190.769 341.202 192.125C340.573 193.473 339.702 194.519 338.588 195.261C337.474 195.996 336.19 196.364 334.736 196.364C333.615 196.364 332.717 196.178 332.043 195.807C331.368 195.428 330.849 195 330.486 194.523C330.122 194.038 329.842 193.636 329.645 193.318H329.418V202.545H326.736ZM329.372 187.273C329.372 188.591 329.565 189.754 329.952 190.761C330.338 191.761 330.902 192.545 331.645 193.114C332.387 193.674 333.296 193.955 334.372 193.955C335.493 193.955 336.429 193.659 337.179 193.068C337.937 192.47 338.505 191.667 338.884 190.659C339.27 189.644 339.463 188.515 339.463 187.273C339.463 186.045 339.274 184.939 338.895 183.955C338.524 182.962 337.959 182.178 337.202 181.602C336.452 181.019 335.509 180.727 334.372 180.727C333.281 180.727 332.365 181.004 331.622 181.557C330.88 182.102 330.319 182.867 329.94 183.852C329.562 184.83 329.372 185.97 329.372 187.273ZM358.599 182.455L356.19 183.136C356.039 182.735 355.815 182.345 355.52 181.966C355.232 181.58 354.838 181.261 354.338 181.011C353.838 180.761 353.198 180.636 352.418 180.636C351.349 180.636 350.459 180.883 349.747 181.375C349.043 181.86 348.69 182.477 348.69 183.227C348.69 183.894 348.933 184.42 349.418 184.807C349.902 185.193 350.66 185.515 351.69 185.773L354.281 186.409C355.842 186.788 357.005 187.367 357.77 188.148C358.535 188.92 358.918 189.917 358.918 191.136C358.918 192.136 358.63 193.03 358.054 193.818C357.486 194.606 356.69 195.227 355.668 195.682C354.645 196.136 353.455 196.364 352.099 196.364C350.319 196.364 348.846 195.977 347.679 195.205C346.512 194.432 345.774 193.303 345.463 191.818L348.009 191.182C348.251 192.121 348.709 192.826 349.384 193.295C350.065 193.765 350.955 194 352.054 194C353.304 194 354.296 193.735 355.031 193.205C355.774 192.667 356.145 192.023 356.145 191.273C356.145 190.667 355.933 190.159 355.509 189.75C355.084 189.333 354.433 189.023 353.554 188.818L350.645 188.136C349.046 187.758 347.872 187.17 347.122 186.375C346.38 185.572 346.009 184.568 346.009 183.364C346.009 182.379 346.285 181.508 346.838 180.75C347.399 179.992 348.16 179.398 349.122 178.966C350.092 178.534 351.19 178.318 352.418 178.318C354.145 178.318 355.501 178.697 356.486 179.455C357.478 180.212 358.183 181.212 358.599 182.455ZM375.864 165.227V203.5H373.591V165.227H375.864ZM391.787 196V172.727H405.741V175.227H394.605V183.091H404.696V185.591H394.605V196H391.787ZM420.111 188.864V178.545H422.793V196H420.111V193.045H419.929C419.52 193.932 418.884 194.686 418.02 195.307C417.156 195.92 416.065 196.227 414.747 196.227C413.656 196.227 412.687 195.989 411.838 195.511C410.99 195.027 410.323 194.299 409.838 193.33C409.353 192.352 409.111 191.121 409.111 189.636V178.545H411.793V189.455C411.793 190.727 412.149 191.742 412.861 192.5C413.58 193.258 414.497 193.636 415.611 193.636C416.277 193.636 416.955 193.466 417.645 193.125C418.342 192.784 418.925 192.261 419.395 191.557C419.872 190.852 420.111 189.955 420.111 188.864ZM430.386 172.727V196H427.705V172.727H430.386ZM437.98 172.727V196H435.298V172.727H437.98ZM464.983 178.545C464.847 177.394 464.294 176.5 463.324 175.864C462.354 175.227 461.165 174.909 459.756 174.909C458.725 174.909 457.824 175.076 457.051 175.409C456.286 175.742 455.688 176.201 455.256 176.784C454.831 177.367 454.619 178.03 454.619 178.773C454.619 179.394 454.767 179.928 455.062 180.375C455.366 180.814 455.752 181.182 456.222 181.477C456.691 181.765 457.184 182.004 457.699 182.193C458.214 182.375 458.688 182.523 459.119 182.636L461.483 183.273C462.089 183.432 462.763 183.652 463.506 183.932C464.256 184.212 464.972 184.595 465.653 185.08C466.343 185.557 466.911 186.17 467.358 186.92C467.805 187.67 468.028 188.591 468.028 189.682C468.028 190.939 467.699 192.076 467.04 193.091C466.388 194.106 465.434 194.913 464.176 195.511C462.926 196.11 461.407 196.409 459.619 196.409C457.953 196.409 456.509 196.14 455.29 195.602C454.078 195.064 453.123 194.314 452.426 193.352C451.737 192.39 451.347 191.273 451.256 190H454.165C454.241 190.879 454.536 191.606 455.051 192.182C455.574 192.75 456.233 193.174 457.028 193.455C457.831 193.727 458.695 193.864 459.619 193.864C460.695 193.864 461.661 193.689 462.517 193.341C463.373 192.985 464.051 192.492 464.551 191.864C465.051 191.227 465.301 190.485 465.301 189.636C465.301 188.864 465.085 188.235 464.653 187.75C464.222 187.265 463.653 186.871 462.949 186.568C462.244 186.265 461.483 186 460.665 185.773L457.801 184.955C455.983 184.432 454.544 183.686 453.483 182.716C452.422 181.746 451.892 180.477 451.892 178.909C451.892 177.606 452.244 176.47 452.949 175.5C453.661 174.523 454.616 173.765 455.812 173.227C457.017 172.682 458.362 172.409 459.847 172.409C461.347 172.409 462.68 172.678 463.847 173.216C465.013 173.746 465.938 174.473 466.619 175.398C467.309 176.322 467.672 177.371 467.71 178.545H464.983ZM479.889 178.545V180.818H470.844V178.545H479.889ZM473.48 174.364H476.162V191C476.162 191.758 476.272 192.326 476.491 192.705C476.719 193.076 477.007 193.326 477.355 193.455C477.711 193.576 478.086 193.636 478.48 193.636C478.776 193.636 479.018 193.621 479.207 193.591C479.397 193.553 479.548 193.523 479.662 193.5L480.207 195.909C480.026 195.977 479.772 196.045 479.446 196.114C479.12 196.189 478.707 196.227 478.207 196.227C477.45 196.227 476.707 196.064 475.98 195.739C475.26 195.413 474.662 194.917 474.185 194.25C473.715 193.583 473.48 192.742 473.48 191.727V174.364ZM489.06 196.409C487.954 196.409 486.95 196.201 486.048 195.784C485.147 195.36 484.431 194.75 483.901 193.955C483.37 193.152 483.105 192.182 483.105 191.045C483.105 190.045 483.302 189.235 483.696 188.614C484.09 187.985 484.616 187.492 485.276 187.136C485.935 186.78 486.662 186.515 487.457 186.341C488.26 186.159 489.067 186.015 489.878 185.909C490.938 185.773 491.798 185.67 492.457 185.602C493.124 185.527 493.609 185.402 493.912 185.227C494.223 185.053 494.378 184.75 494.378 184.318V184.227C494.378 183.106 494.071 182.235 493.457 181.614C492.851 180.992 491.931 180.682 490.696 180.682C489.416 180.682 488.412 180.962 487.685 181.523C486.957 182.083 486.446 182.682 486.151 183.318L483.605 182.409C484.06 181.348 484.666 180.523 485.423 179.932C486.188 179.333 487.022 178.917 487.923 178.682C488.832 178.439 489.726 178.318 490.605 178.318C491.166 178.318 491.81 178.386 492.537 178.523C493.272 178.652 493.98 178.92 494.662 179.33C495.351 179.739 495.923 180.356 496.378 181.182C496.832 182.008 497.06 183.114 497.06 184.5V196H494.378V193.636H494.241C494.06 194.015 493.757 194.42 493.332 194.852C492.908 195.284 492.344 195.652 491.639 195.955C490.935 196.258 490.075 196.409 489.06 196.409ZM489.469 194C490.529 194 491.423 193.792 492.151 193.375C492.885 192.958 493.438 192.42 493.81 191.761C494.188 191.102 494.378 190.409 494.378 189.682V187.227C494.264 187.364 494.014 187.489 493.628 187.602C493.249 187.708 492.81 187.803 492.31 187.886C491.817 187.962 491.336 188.03 490.866 188.091C490.404 188.144 490.029 188.189 489.741 188.227C489.045 188.318 488.393 188.466 487.787 188.67C487.188 188.867 486.704 189.167 486.332 189.568C485.969 189.962 485.787 190.5 485.787 191.182C485.787 192.114 486.132 192.818 486.821 193.295C487.518 193.765 488.401 194 489.469 194ZM509.045 196.364C507.409 196.364 506 195.977 504.818 195.205C503.636 194.432 502.727 193.367 502.091 192.011C501.455 190.655 501.136 189.106 501.136 187.364C501.136 185.591 501.462 184.027 502.114 182.67C502.773 181.307 503.689 180.242 504.864 179.477C506.045 178.705 507.424 178.318 509 178.318C510.227 178.318 511.333 178.545 512.318 179C513.303 179.455 514.11 180.091 514.739 180.909C515.367 181.727 515.758 182.682 515.909 183.773H513.227C513.023 182.977 512.568 182.273 511.864 181.659C511.167 181.038 510.227 180.727 509.045 180.727C508 180.727 507.083 181 506.295 181.545C505.515 182.083 504.905 182.845 504.466 183.83C504.034 184.807 503.818 185.955 503.818 187.273C503.818 188.621 504.03 189.795 504.455 190.795C504.886 191.795 505.492 192.572 506.273 193.125C507.061 193.678 507.985 193.955 509.045 193.955C509.742 193.955 510.375 193.833 510.943 193.591C511.511 193.348 511.992 193 512.386 192.545C512.78 192.091 513.061 191.545 513.227 190.909H515.909C515.758 191.939 515.383 192.867 514.784 193.693C514.193 194.511 513.409 195.163 512.432 195.648C511.462 196.125 510.333 196.364 509.045 196.364ZM522.33 189.636L522.284 186.318H522.83L530.466 178.545H533.784L525.648 186.773H525.42L522.33 189.636ZM519.83 196V172.727H522.511V196H519.83ZM530.92 196L524.102 187.364L526.011 185.5L534.33 196H530.92ZM550.145 165.227V203.5H547.872V165.227H550.145ZM584.795 180H581.977C581.811 179.189 581.519 178.477 581.102 177.864C580.693 177.25 580.193 176.735 579.602 176.318C579.019 175.894 578.371 175.576 577.659 175.364C576.947 175.152 576.205 175.045 575.432 175.045C574.023 175.045 572.746 175.402 571.602 176.114C570.466 176.826 569.561 177.875 568.886 179.261C568.22 180.648 567.886 182.348 567.886 184.364C567.886 186.379 568.22 188.08 568.886 189.466C569.561 190.852 570.466 191.902 571.602 192.614C572.746 193.326 574.023 193.682 575.432 193.682C576.205 193.682 576.947 193.576 577.659 193.364C578.371 193.152 579.019 192.837 579.602 192.42C580.193 191.996 580.693 191.477 581.102 190.864C581.519 190.242 581.811 189.53 581.977 188.727H584.795C584.583 189.917 584.197 190.981 583.636 191.92C583.076 192.86 582.379 193.659 581.545 194.318C580.712 194.97 579.777 195.466 578.739 195.807C577.708 196.148 576.606 196.318 575.432 196.318C573.447 196.318 571.682 195.833 570.136 194.864C568.591 193.894 567.375 192.515 566.489 190.727C565.602 188.939 565.159 186.818 565.159 184.364C565.159 181.909 565.602 179.788 566.489 178C567.375 176.212 568.591 174.833 570.136 173.864C571.682 172.894 573.447 172.409 575.432 172.409C576.606 172.409 577.708 172.58 578.739 172.92C579.777 173.261 580.712 173.761 581.545 174.42C582.379 175.072 583.076 175.867 583.636 176.807C584.197 177.739 584.583 178.803 584.795 180ZM591.668 172.727V196H588.986V172.727H591.668ZM603.67 196.364C602.095 196.364 600.712 195.989 599.523 195.239C598.341 194.489 597.417 193.439 596.75 192.091C596.091 190.742 595.761 189.167 595.761 187.364C595.761 185.545 596.091 183.958 596.75 182.602C597.417 181.246 598.341 180.193 599.523 179.443C600.712 178.693 602.095 178.318 603.67 178.318C605.246 178.318 606.625 178.693 607.807 179.443C608.996 180.193 609.92 181.246 610.58 182.602C611.246 183.958 611.58 185.545 611.58 187.364C611.58 189.167 611.246 190.742 610.58 192.091C609.92 193.439 608.996 194.489 607.807 195.239C606.625 195.989 605.246 196.364 603.67 196.364ZM603.67 193.955C604.867 193.955 605.852 193.648 606.625 193.034C607.398 192.42 607.97 191.614 608.341 190.614C608.712 189.614 608.898 188.53 608.898 187.364C608.898 186.197 608.712 185.11 608.341 184.102C607.97 183.095 607.398 182.28 606.625 181.659C605.852 181.038 604.867 180.727 603.67 180.727C602.473 180.727 601.489 181.038 600.716 181.659C599.943 182.28 599.371 183.095 599 184.102C598.629 185.11 598.443 186.197 598.443 187.364C598.443 188.53 598.629 189.614 599 190.614C599.371 191.614 599.943 192.42 600.716 193.034C601.489 193.648 602.473 193.955 603.67 193.955ZM626.673 188.864V178.545H629.355V196H626.673V193.045H626.491C626.082 193.932 625.446 194.686 624.582 195.307C623.719 195.92 622.628 196.227 621.31 196.227C620.219 196.227 619.249 195.989 618.401 195.511C617.552 195.027 616.885 194.299 616.401 193.33C615.916 192.352 615.673 191.121 615.673 189.636V178.545H618.355V189.455C618.355 190.727 618.711 191.742 619.423 192.5C620.143 193.258 621.06 193.636 622.173 193.636C622.84 193.636 623.518 193.466 624.207 193.125C624.904 192.784 625.488 192.261 625.957 191.557C626.435 190.852 626.673 189.955 626.673 188.864ZM640.858 196.364C639.403 196.364 638.119 195.996 637.006 195.261C635.892 194.519 635.021 193.473 634.392 192.125C633.763 190.769 633.449 189.167 633.449 187.318C633.449 185.485 633.763 183.894 634.392 182.545C635.021 181.197 635.896 180.155 637.017 179.42C638.138 178.686 639.434 178.318 640.903 178.318C642.04 178.318 642.938 178.508 643.597 178.886C644.263 179.258 644.771 179.682 645.119 180.159C645.475 180.629 645.752 181.015 645.949 181.318H646.176V172.727H648.858V196H646.267V193.318H645.949C645.752 193.636 645.472 194.038 645.108 194.523C644.744 195 644.225 195.428 643.551 195.807C642.877 196.178 641.979 196.364 640.858 196.364ZM641.222 193.955C642.297 193.955 643.206 193.674 643.949 193.114C644.691 192.545 645.256 191.761 645.642 190.761C646.028 189.754 646.222 188.591 646.222 187.273C646.222 185.97 646.032 184.83 645.653 183.852C645.275 182.867 644.714 182.102 643.972 181.557C643.229 181.004 642.313 180.727 641.222 180.727C640.085 180.727 639.138 181.019 638.381 181.602C637.631 182.178 637.066 182.962 636.688 183.955C636.316 184.939 636.131 186.045 636.131 187.273C636.131 188.515 636.32 189.644 636.699 190.659C637.085 191.667 637.653 192.47 638.403 193.068C639.161 193.659 640.1 193.955 641.222 193.955ZM681.96 172.727V196H679.233L666.551 177.727H666.324V196H663.506V172.727H666.233L678.96 191.045H679.188V172.727H681.96ZM692.372 196.409C691.266 196.409 690.262 196.201 689.361 195.784C688.459 195.36 687.743 194.75 687.213 193.955C686.683 193.152 686.418 192.182 686.418 191.045C686.418 190.045 686.615 189.235 687.009 188.614C687.402 187.985 687.929 187.492 688.588 187.136C689.247 186.78 689.974 186.515 690.77 186.341C691.573 186.159 692.38 186.015 693.19 185.909C694.251 185.773 695.111 185.67 695.77 185.602C696.437 185.527 696.921 185.402 697.224 185.227C697.535 185.053 697.69 184.75 697.69 184.318V184.227C697.69 183.106 697.384 182.235 696.77 181.614C696.164 180.992 695.243 180.682 694.009 180.682C692.728 180.682 691.724 180.962 690.997 181.523C690.27 182.083 689.759 182.682 689.463 183.318L686.918 182.409C687.372 181.348 687.978 180.523 688.736 179.932C689.501 179.333 690.334 178.917 691.236 178.682C692.145 178.439 693.039 178.318 693.918 178.318C694.478 178.318 695.122 178.386 695.849 178.523C696.584 178.652 697.293 178.92 697.974 179.33C698.664 179.739 699.236 180.356 699.69 181.182C700.145 182.008 700.372 183.114 700.372 184.5V196H697.69V193.636H697.554C697.372 194.015 697.069 194.42 696.645 194.852C696.221 195.284 695.656 195.652 694.952 195.955C694.247 196.258 693.387 196.409 692.372 196.409ZM692.781 194C693.842 194 694.736 193.792 695.463 193.375C696.198 192.958 696.751 192.42 697.122 191.761C697.501 191.102 697.69 190.409 697.69 189.682V187.227C697.577 187.364 697.327 187.489 696.94 187.602C696.562 187.708 696.122 187.803 695.622 187.886C695.13 187.962 694.649 188.03 694.179 188.091C693.717 188.144 693.342 188.189 693.054 188.227C692.357 188.318 691.705 188.466 691.099 188.67C690.501 188.867 690.016 189.167 689.645 189.568C689.281 189.962 689.099 190.5 689.099 191.182C689.099 192.114 689.444 192.818 690.134 193.295C690.83 193.765 691.713 194 692.781 194ZM712.858 178.545V180.818H703.812V178.545H712.858ZM706.449 174.364H709.131V191C709.131 191.758 709.241 192.326 709.46 192.705C709.688 193.076 709.975 193.326 710.324 193.455C710.68 193.576 711.055 193.636 711.449 193.636C711.744 193.636 711.987 193.621 712.176 193.591C712.366 193.553 712.517 193.523 712.631 193.5L713.176 195.909C712.994 195.977 712.741 196.045 712.415 196.114C712.089 196.189 711.676 196.227 711.176 196.227C710.419 196.227 709.676 196.064 708.949 195.739C708.229 195.413 707.631 194.917 707.153 194.25C706.684 193.583 706.449 192.742 706.449 191.727V174.364ZM716.892 196V178.545H719.574V196H716.892ZM718.256 175.636C717.733 175.636 717.282 175.458 716.903 175.102C716.532 174.746 716.347 174.318 716.347 173.818C716.347 173.318 716.532 172.89 716.903 172.534C717.282 172.178 717.733 172 718.256 172C718.778 172 719.225 172.178 719.597 172.534C719.975 172.89 720.165 173.318 720.165 173.818C720.165 174.318 719.975 174.746 719.597 175.102C719.225 175.458 718.778 175.636 718.256 175.636ZM738.759 178.545L732.304 196H729.577L723.122 178.545H726.031L730.849 192.455H731.031L735.849 178.545H738.759ZM748.991 196.364C747.31 196.364 745.859 195.992 744.639 195.25C743.427 194.5 742.491 193.455 741.832 192.114C741.181 190.765 740.855 189.197 740.855 187.409C740.855 185.621 741.181 184.045 741.832 182.682C742.491 181.311 743.408 180.242 744.582 179.477C745.764 178.705 747.143 178.318 748.719 178.318C749.628 178.318 750.526 178.47 751.412 178.773C752.298 179.076 753.105 179.568 753.832 180.25C754.56 180.924 755.139 181.818 755.571 182.932C756.003 184.045 756.219 185.417 756.219 187.045V188.182H742.764V185.864H753.491C753.491 184.879 753.295 184 752.901 183.227C752.514 182.455 751.961 181.845 751.241 181.398C750.529 180.951 749.688 180.727 748.719 180.727C747.651 180.727 746.726 180.992 745.946 181.523C745.173 182.045 744.579 182.727 744.162 183.568C743.745 184.409 743.537 185.311 743.537 186.273V187.818C743.537 189.136 743.764 190.254 744.219 191.17C744.681 192.08 745.321 192.773 746.139 193.25C746.957 193.72 747.908 193.955 748.991 193.955C749.696 193.955 750.332 193.856 750.901 193.659C751.476 193.455 751.973 193.152 752.389 192.75C752.806 192.341 753.128 191.833 753.355 191.227L755.946 191.955C755.673 192.833 755.215 193.606 754.571 194.273C753.927 194.932 753.132 195.447 752.185 195.818C751.238 196.182 750.173 196.364 748.991 196.364Z" fill="white"/>
<path d="M328.591 135V88.4545H346.409C349.773 88.4545 352.568 88.9848 354.795 90.0455C357.038 91.0909 358.712 92.5227 359.818 94.3409C360.939 96.1591 361.5 98.2197 361.5 100.523C361.5 102.417 361.136 104.038 360.409 105.386C359.682 106.72 358.705 107.803 357.477 108.636C356.25 109.47 354.879 110.068 353.364 110.432V110.886C355.015 110.977 356.598 111.485 358.114 112.409C359.644 113.318 360.894 114.606 361.864 116.273C362.833 117.939 363.318 119.955 363.318 122.318C363.318 124.727 362.735 126.894 361.568 128.818C360.402 130.727 358.644 132.235 356.295 133.341C353.947 134.447 350.992 135 347.432 135H328.591ZM337.023 127.955H346.091C349.152 127.955 351.356 127.371 352.705 126.205C354.068 125.023 354.75 123.508 354.75 121.659C354.75 120.28 354.409 119.038 353.727 117.932C353.045 116.811 352.076 115.932 350.818 115.295C349.561 114.644 348.061 114.318 346.318 114.318H337.023V127.955ZM337.023 108.25H345.364C346.818 108.25 348.129 107.985 349.295 107.455C350.462 106.909 351.379 106.144 352.045 105.159C352.727 104.159 353.068 102.977 353.068 101.614C353.068 99.8106 352.432 98.3258 351.159 97.1591C349.902 95.9924 348.03 95.4091 345.545 95.4091H337.023V108.25ZM392.54 120.318V100.091H400.767V135H392.79V128.795H392.426C391.638 130.75 390.343 132.348 388.54 133.591C386.752 134.833 384.547 135.455 381.926 135.455C379.638 135.455 377.616 134.947 375.858 133.932C374.116 132.902 372.752 131.409 371.767 129.455C370.782 127.485 370.29 125.106 370.29 122.318V100.091H378.517V121.045C378.517 123.258 379.123 125.015 380.335 126.318C381.547 127.621 383.138 128.273 385.108 128.273C386.32 128.273 387.494 127.977 388.631 127.386C389.767 126.795 390.699 125.917 391.426 124.75C392.169 123.568 392.54 122.091 392.54 120.318ZM424.455 135.682C420.97 135.682 417.977 134.917 415.477 133.386C412.992 131.856 411.076 129.742 409.727 127.045C408.394 124.333 407.727 121.212 407.727 117.682C407.727 114.136 408.409 111.008 409.773 108.295C411.136 105.568 413.061 103.447 415.545 101.932C418.045 100.402 421 99.6364 424.409 99.6364C427.242 99.6364 429.75 100.159 431.932 101.205C434.129 102.235 435.879 103.697 437.182 105.591C438.485 107.47 439.227 109.667 439.409 112.182H431.545C431.227 110.5 430.47 109.098 429.273 107.977C428.091 106.841 426.508 106.273 424.523 106.273C422.841 106.273 421.364 106.727 420.091 107.636C418.818 108.53 417.826 109.818 417.114 111.5C416.417 113.182 416.068 115.197 416.068 117.545C416.068 119.924 416.417 121.97 417.114 123.682C417.811 125.379 418.788 126.689 420.045 127.614C421.318 128.523 422.811 128.977 424.523 128.977C425.735 128.977 426.818 128.75 427.773 128.295C428.742 127.826 429.553 127.152 430.205 126.273C430.856 125.394 431.303 124.326 431.545 123.068H439.409C439.212 125.538 438.485 127.727 437.227 129.636C435.97 131.53 434.258 133.015 432.091 134.091C429.924 135.152 427.379 135.682 424.455 135.682ZM453.665 124.045L453.642 114.114H454.96L467.506 100.091H477.119L461.688 117.273H459.983L453.665 124.045ZM446.165 135V88.4545H454.392V135H446.165ZM468.074 135L456.71 119.114L462.256 113.318L477.915 135H468.074ZM498.841 135V88.4545H516.659C520.023 88.4545 522.818 88.9848 525.045 90.0455C527.288 91.0909 528.962 92.5227 530.068 94.3409C531.189 96.1591 531.75 98.2197 531.75 100.523C531.75 102.417 531.386 104.038 530.659 105.386C529.932 106.72 528.955 107.803 527.727 108.636C526.5 109.47 525.129 110.068 523.614 110.432V110.886C525.265 110.977 526.848 111.485 528.364 112.409C529.894 113.318 531.144 114.606 532.114 116.273C533.083 117.939 533.568 119.955 533.568 122.318C533.568 124.727 532.985 126.894 531.818 128.818C530.652 130.727 528.894 132.235 526.545 133.341C524.197 134.447 521.242 135 517.682 135H498.841ZM507.273 127.955H516.341C519.402 127.955 521.606 127.371 522.955 126.205C524.318 125.023 525 123.508 525 121.659C525 120.28 524.659 119.038 523.977 117.932C523.295 116.811 522.326 115.932 521.068 115.295C519.811 114.644 518.311 114.318 516.568 114.318H507.273V127.955ZM507.273 108.25H515.614C517.068 108.25 518.379 107.985 519.545 107.455C520.712 106.909 521.629 106.144 522.295 105.159C522.977 104.159 523.318 102.977 523.318 101.614C523.318 99.8106 522.682 98.3258 521.409 97.1591C520.152 95.9924 518.28 95.4091 515.795 95.4091H507.273V108.25ZM540.54 135V100.091H548.517V105.909H548.881C549.517 103.894 550.608 102.341 552.153 101.25C553.714 100.144 555.494 99.5909 557.494 99.5909C557.949 99.5909 558.456 99.6136 559.017 99.6591C559.593 99.6894 560.07 99.7424 560.449 99.8182V107.386C560.1 107.265 559.547 107.159 558.79 107.068C558.047 106.962 557.328 106.909 556.631 106.909C555.131 106.909 553.782 107.235 552.585 107.886C551.403 108.523 550.472 109.409 549.79 110.545C549.108 111.682 548.767 112.992 548.767 114.477V135H540.54ZM575.335 135.705C573.123 135.705 571.131 135.311 569.358 134.523C567.6 133.72 566.206 132.538 565.176 130.977C564.161 129.417 563.653 127.492 563.653 125.205C563.653 123.235 564.017 121.606 564.744 120.318C565.472 119.03 566.464 118 567.722 117.227C568.979 116.455 570.396 115.871 571.972 115.477C573.563 115.068 575.206 114.773 576.903 114.591C578.949 114.379 580.608 114.189 581.881 114.023C583.153 113.841 584.078 113.568 584.653 113.205C585.244 112.826 585.54 112.242 585.54 111.455V111.318C585.54 109.606 585.032 108.28 584.017 107.341C583.002 106.402 581.54 105.932 579.631 105.932C577.616 105.932 576.017 106.371 574.835 107.25C573.669 108.129 572.881 109.167 572.472 110.364L564.79 109.273C565.396 107.152 566.396 105.379 567.79 103.955C569.184 102.515 570.888 101.439 572.903 100.727C574.919 100 577.146 99.6364 579.585 99.6364C581.267 99.6364 582.941 99.8333 584.608 100.227C586.275 100.621 587.797 101.273 589.176 102.182C590.555 103.076 591.661 104.295 592.494 105.841C593.343 107.386 593.767 109.318 593.767 111.636V135H585.858V130.205H585.585C585.085 131.174 584.381 132.083 583.472 132.932C582.578 133.765 581.449 134.439 580.085 134.955C578.737 135.455 577.153 135.705 575.335 135.705ZM577.472 129.659C579.123 129.659 580.555 129.333 581.767 128.682C582.979 128.015 583.911 127.136 584.562 126.045C585.229 124.955 585.562 123.765 585.562 122.477V118.364C585.305 118.576 584.866 118.773 584.244 118.955C583.638 119.136 582.956 119.295 582.199 119.432C581.441 119.568 580.691 119.689 579.949 119.795C579.206 119.902 578.563 119.992 578.017 120.068C576.79 120.235 575.691 120.508 574.722 120.886C573.752 121.265 572.987 121.795 572.426 122.477C571.866 123.144 571.585 124.008 571.585 125.068C571.585 126.583 572.138 127.727 573.244 128.5C574.35 129.273 575.759 129.659 577.472 129.659ZM614.994 135.614C612.252 135.614 609.797 134.909 607.631 133.5C605.464 132.091 603.752 130.045 602.494 127.364C601.237 124.682 600.608 121.424 600.608 117.591C600.608 113.712 601.244 110.439 602.517 107.773C603.805 105.091 605.54 103.068 607.722 101.705C609.903 100.326 612.335 99.6364 615.017 99.6364C617.063 99.6364 618.744 99.9848 620.062 100.682C621.381 101.364 622.426 102.189 623.199 103.159C623.972 104.114 624.57 105.015 624.994 105.864H625.335V88.4545H633.585V135H625.494V129.5H624.994C624.57 130.348 623.956 131.25 623.153 132.205C622.35 133.144 621.29 133.947 619.972 134.614C618.653 135.28 616.994 135.614 614.994 135.614ZM617.29 128.864C619.032 128.864 620.517 128.394 621.744 127.455C622.972 126.5 623.903 125.174 624.54 123.477C625.176 121.78 625.494 119.803 625.494 117.545C625.494 115.288 625.176 113.326 624.54 111.659C623.919 109.992 622.994 108.697 621.767 107.773C620.555 106.848 619.063 106.386 617.29 106.386C615.456 106.386 613.926 106.864 612.699 107.818C611.472 108.773 610.547 110.091 609.926 111.773C609.305 113.455 608.994 115.379 608.994 117.545C608.994 119.727 609.305 121.674 609.926 123.386C610.563 125.083 611.494 126.424 612.722 127.409C613.964 128.379 615.487 128.864 617.29 128.864ZM647.466 148.091C646.345 148.091 645.307 148 644.352 147.818C643.413 147.652 642.663 147.455 642.102 147.227L644.011 140.818C645.208 141.167 646.277 141.333 647.216 141.318C648.155 141.303 648.981 141.008 649.693 140.432C650.42 139.871 651.034 138.932 651.534 137.614L652.239 135.727L639.58 100.091H648.307L656.352 126.455H656.716L664.784 100.091H673.534L659.557 139.227C658.905 141.076 658.042 142.659 656.966 143.977C655.89 145.311 654.572 146.326 653.011 147.023C651.466 147.735 649.617 148.091 647.466 148.091Z" fill="white"/>
</svg>
